<?xml version="1.0" encoding="utf-8"?>
<!-- Generator: Adobe Illustrator 27.2.0, SVG Export Plug-In . SVG Version: 6.00 Build 0)  -->
<svg version="1.1" xmlns="http://www.w3.org/2000/svg" xmlns:xlink="http://www.w3.org/1999/xlink" x="0px" y="0px"
	 viewBox="0 0 500 444" style="enable-background:new 0 0 500 444;" xml:space="preserve">
<style type="text/css">
	.st0{fill:#FFFFFF;}
	.st1{fill:#EFEFEF;stroke:#DDDDDD;stroke-width:3;stroke-miterlimit:10;}
	.st2{fill:#FFFFFF;stroke:#DDDDDD;stroke-width:3;stroke-miterlimit:10;}
	.st3{stroke:#8E4335;stroke-miterlimit:10;}
	.st4{fill:#281413;}
	.st5{fill:#2E1711;}
	.st6{fill:#51221C;}
	.st7{fill:#8E4335;}
	.st8{fill:#584A4A;}
	.st9{fill:#584A4A;stroke:#3A3232;stroke-miterlimit:10;}
	.st10{fill:#4C4242;stroke:#3A3232;stroke-miterlimit:10;}
	.st11{fill:#423B3B;stroke:#3A3232;stroke-miterlimit:10;}
	.st12{fill:#332D2D;stroke:#3A3232;stroke-miterlimit:10;}
	.st13{fill:#51221C;stroke:#2E1711;stroke-miterlimit:10;}
	.st14{fill:#FFFFFF;stroke:#8E4335;stroke-miterlimit:10;}
	.st15{fill:none;stroke:#8E4335;stroke-miterlimit:10;}
	.st16{fill:#3F392A;}
	.st17{fill:#6C6249;}
</style>
<g id="Layer_18">
	<rect x="107" y="296" class="st0" width="358" height="132"/>
	<g id="Layer_20">
		<path class="st1" d="M173.08,316.93c-2.57-1.69-5.1-2.51-7.08-2.93c-1.99,0.41-4.52,1.24-7.08,2.93
			c-7.71,5.08-9.53,13.95-9.92,16.1c0,13.66,0,27.32,0,40.98c4.33,0,10.6,0,15.58,0c1,0,1.97,0,2.83,0c4.98,0,11.26,0,15.58,0
			c0-13.66,0-27.32,0-40.98C182.62,330.88,180.79,322.01,173.08,316.93z"/>
		<path class="st2" d="M171,323.96c-1.81-1.36-3.6-2.03-5-2.36c-1.4,0.33-3.19,1-5,2.36c-5.44,4.1-6.73,11.25-7,12.98
			c0,11.02,0,22.03,0,33.05c3.05,0,7.48,0,11,0c0.71,0,1.39,0,2,0c3.52,0,7.95,0,11,0c0-11.02,0-22.03,0-33.05
			C177.73,335.22,176.44,328.06,171,323.96z"/>
		<path class="st3" d="M169.33,329.9c-1.21-1.04-2.4-1.54-3.33-1.8c-0.93,0.26-2.13,0.76-3.33,1.8c-3.63,3.13-4.49,8.58-4.67,9.9
			c0,8.4,0,16.8,0,25.2c2.04,0,4.99,0,7.33,0c0.47,0,0.92,0,1.33,0c2.35,0,5.3,0,7.33,0c0-8.4,0-16.8,0-25.2
			C173.82,338.48,172.96,333.03,169.33,329.9z"/>
		<path class="st1" d="M423.58,317.43c-2.57-1.69-5.1-2.51-7.08-2.93c-1.99,0.41-4.52,1.24-7.08,2.93
			c-7.71,5.08-9.53,13.95-9.92,16.1c0,13.66,0,27.32,0,40.98c4.33,0,10.6,0,15.58,0c1,0,1.97,0,2.83,0c4.98,0,11.26,0,15.58,0
			c0-13.66,0-27.32,0-40.98C433.12,331.38,431.29,322.51,423.58,317.43z"/>
		<path class="st2" d="M421.5,324.46c-1.81-1.36-3.6-2.03-5-2.36c-1.4,0.33-3.19,1-5,2.36c-5.44,4.1-6.73,11.25-7,12.98
			c0,11.02,0,22.03,0,33.05c3.05,0,7.48,0,11,0c0.71,0,1.39,0,2,0c3.52,0,7.95,0,11,0c0-11.02,0-22.03,0-33.05
			C428.23,335.72,426.94,328.56,421.5,324.46z"/>
		<path class="st3" d="M419.83,330.4c-1.21-1.04-2.4-1.54-3.33-1.8c-0.93,0.26-2.13,0.76-3.33,1.8c-3.63,3.13-4.49,8.58-4.67,9.9
			c0,8.4,0,16.8,0,25.2c2.04,0,4.99,0,7.33,0c0.47,0,0.92,0,1.33,0c2.35,0,5.3,0,7.33,0c0-8.4,0-16.8,0-25.2
			C424.32,338.98,423.46,333.53,419.83,330.4z"/>
	</g>
</g>
<g id="Layer_19">
	<rect x="112" y="192" class="st4" width="353" height="104"/>
</g>
<g id="Layer_2">
	<g>
		<rect x="60" y="2" class="st5" width="2" height="4"/>
		<path class="st6" d="M117,115c-0.36-9.33-0.72-18.67-1.09-28c-2.9,0-5.8,0-8.7,0c0,0.67,0,1.33,0,2c-0.72,0-1.45,0-2.17,0
			c0-7,0-14,0-21c-3.26,0-6.52,0-9.79,0c0,0.67,0,1.33,0,2c-0.72,0-1.45,0-2.17,0c0-7.33,0-14.67,0-22c-3.26,0-6.52,0-9.79,0
			c0,0.67,0,1.33,0,2c-0.72,0-1.45,0-2.17,0c0-8.33,0-16.67,0-25c-2.54,0-5.58,0-8.12,0c0,1,0,2,0,3c-0.72,0-0.94,0-1.67,0
			c0-4.67,0-9.33,0-14c-1.45,0-2.9,0-4.35,0c0-1.67,0-3.33,0-5c-0.57-2.33-2.84-4-5.44-4C61.36,5,61.18,5.03,61,5.04
			C60.82,5.03,60.64,5,60.46,5c-2.6,0-4.87,1.67-5.44,4c0,1.67-0.02,3.33-0.02,5c-1.45,0-2.88,0-4.33,0c0,4.67,0,9.33,0,14
			c-0.72,0-0.94,0-1.67,0c0-1,0-1,0-2c-2.54,0-5.58-1-8.12-1c0,8.33,0,16.67,0,25c-0.72,0-1.45,0-2.17,0c0-0.67,0-1.33,0-2
			c-3.26,0-6.52,0-9.79,0c0,7.33,0,14.67,0,22c-0.72,0-1.45,0-2.17,0c0-0.67,0-1.33,0-2c-3.26,0-6.52,0-9.79,0c0,7,0,14,0,21
			c-0.72,0-1.45,0-2.17,0c0-0.67,0-1.33,0-2c-2.9,0-5.8,0-8.7,0C5.72,96.33,5.36,105.67,5,115c0.67,1.23,1.33,2.45,2,3.68V429h108
			V118.68C115.67,117.45,116.33,116.23,117,115z"/>
		<rect x="27" y="46" class="st5" width="12" height="2"/>
		<rect x="15" y="66" class="st5" width="12" height="2"/>
		<rect x="39" y="24" class="st5" width="10" height="2"/>
		<rect x="73" y="24" class="st5" width="10" height="2"/>
		<rect x="49" y="14" class="st5" width="6" height="2"/>
		<rect x="67" y="14" class="st5" width="6" height="2"/>
		<rect x="83" y="46" class="st5" width="12" height="2"/>
		<rect x="95" y="66" class="st5" width="12" height="2"/>
		<rect x="107" y="85" class="st5" width="10" height="2"/>
		<rect x="5" y="85" class="st5" width="10" height="2"/>
		<path class="st6" d="M390,307.37c-0.64-9.33-1.27-18.67-1.91-28c-5.09,0-10.18,0-15.27,0c0,0.67,0,1.33,0,2c-1.27,0-2.55,0-3.82,0
			c0-7,0-14,0-21c-5.73,0-11.46,0-17.18,0c0,0.67,0,1.33,0,2c-1.27,0-2.55,0-3.82,0c0-7.33,0-14.67,0-22c-5.73,0-11.46,0-17.18,0
			c0,0.67,0,1.33,0,2c-1.27,0-2.55,0-3.82,0c0-8.33,0-16.67,0-25c-4.45,0-9.8,0-14.25,0c0,1,0,2,0,3c-1.27,0-1.66,0-2.93,0
			c0-4.67,0-9.33,0-14c-2.55,0-5.09,0-7.64,0c0-1.67,0-3.33,0-5c-1-2.33-4.99-4-9.55-4c-0.32,0-0.64,0.03-0.95,0.04
			c-0.32-0.02-0.63-0.04-0.95-0.04c-4.56,0-8.55,1.67-9.55,4c0,1.67-0.03,3.33-0.03,5c-2.55,0-5.06,0-7.6,0c0,4.67,0,9.33,0,14
			c-1.27,0-1.66,0-2.93,0c0-1,0-1,0-2c-4.45,0-9.8-1-14.25-1c0,8.33,0,16.67,0,25c-1.27,0-2.55,0-3.82,0c0-0.67,0-1.33,0-2
			c-5.73,0-11.46,0-17.18,0c0,7.33,0,14.67,0,22c-1.27,0-2.55,0-3.82,0c0-0.67,0-1.33,0-2c-5.73,0-11.46,0-17.18,0c0,7,0,14,0,21
			c-1.27,0-2.55,0-3.82,0c0-0.67,0-1.33,0-2c-5.09,0-10.18,0-15.27,0c-0.64,9.33-1.27,18.67-1.91,28c1.17,1.23,2.34,2.45,3.51,3.68
			V443l189.63,1V311.05C387.66,309.82,388.83,308.6,390,307.37z"/>
		<rect x="271" y="206" class="st7" width="10.83" height="5"/>
		<rect x="254" y="214.55" class="st7" width="20.37" height="6.45"/>
		<rect x="232" y="237.06" class="st7" width="24.8" height="5.94"/>
		<rect x="212" y="256.8" class="st7" width="24" height="6.2"/>
		<rect x="193" y="276.15" class="st7" width="22" height="5.85"/>
		<rect x="301.67" y="205.3" class="st7" width="10.83" height="5"/>
		<rect x="309.29" y="214.21" class="st7" width="20.37" height="6.45"/>
		<rect x="326.08" y="236.47" class="st7" width="24.8" height="5.94"/>
		<rect x="346.99" y="258.6" class="st7" width="24.8" height="5.94"/>
		<rect x="368.39" y="276.64" class="st7" width="22" height="5.85"/>
	</g>
</g>
<g id="Layer_16">
	<rect x="7" y="352" class="st8" width="108" height="77"/>
</g>
<g id="Layer_17">
	<path class="st9" d="M33.5,428.5c0.67-18.67,0.33-34.33,1-53c1.3-2.52,5.08-9.03,13-13c11.01-5.52,21.56-1.91,24-1
		c8.63,3.24,13.31,9.48,15,12c0,18.67,0,36.33,0,55C68.5,428.5,51.5,428.5,33.5,428.5z"/>
	<path class="st10" d="M69.04,372.85c-3.09-1.65-6.15-2.45-8.54-2.85c-2.4,0.4-5.45,1.2-8.54,2.85c-9.3,4.96-11.5,13.6-11.96,15.7
		c0,13.32,0,26.63,0,39.95c5.22,0,12.78,0,18.79,0c1.21,0,2.37,0,3.42,0c6.01,0,13.57,0,18.79,0c0-13.32,0-26.63,0-39.95
		C80.54,386.46,78.34,377.81,69.04,372.85z"/>
	<path class="st11" d="M68.09,374.76c-2.82-1.59-5.61-2.37-7.79-2.76c-2.19,0.39-4.97,1.16-7.79,2.76
		c-8.48,4.79-10.49,13.14-10.91,15.16c0,12.86,0,25.72,0,38.59c4.76,0,11.66,0,17.14,0c1.1,0,2.16,0,3.12,0c5.48,0,12.38,0,17.14,0
		c0-12.86,0-25.72,0-38.59C78.58,387.89,76.57,379.54,68.09,374.76z"/>
	<path class="st12" d="M67.38,376.66c-2.49-1.54-4.95-2.29-6.88-2.66c-1.93,0.38-4.38,1.12-6.88,2.66
		c-7.48,4.62-9.25,12.69-9.62,14.64c0,12.42,0,24.85,0,37.27c4.2,0,10.29,0,15.12,0c0.97,0,1.91,0,2.75,0c4.84,0,10.93,0,15.12,0
		c0-12.42,0-24.85,0-37.27C76.63,389.35,74.86,381.29,67.38,376.66z"/>
	<path class="st13" d="M66.12,382.09c-2.04-1.38-4.05-2.04-5.62-2.38c-1.58,0.34-3.59,1-5.62,2.38c-6.12,4.13-7.57,11.34-7.88,13.09
		c0,11.11,0,22.21,0,33.32c3.44,0,8.42,0,12.38,0c0.79,0,1.56,0,2.25,0c3.96,0,8.94,0,12.38,0c0-11.11,0-22.21,0-33.32
		C73.7,393.43,72.25,386.22,66.12,382.09z"/>
	<rect x="69" y="326" class="st14" width="12" height="11"/>
	<rect x="71" y="328" width="8" height="7"/>
</g>
<g id="Layer_3">
	<g id="Layer_4">
		<path class="st5" d="M46.83,145.13c-2.11-1.23-4.2-1.83-5.83-2.13c-1.64,0.3-3.72,0.9-5.83,2.13c-6.35,3.71-7.85,10.17-8.17,11.74
			c0,9.96,0,19.92,0,29.88c3.56,0,8.73,0,12.83,0c0.82,0,1.62,0,2.33,0c4.1,0,9.27,0,12.83,0c0-9.96,0-19.92,0-29.88
			C54.68,155.31,53.18,148.84,46.83,145.13z"/>
	</g>
	<path class="st14" d="M35,160c3.3,0.26,5.42,2.37,6,3c0.26-0.34,2.44-3.03,6-3c2.36,0.02,4.57,1.25,6,3.22c0-1.74,0-3.48,0-5.22
		c-0.27-1.47-1.56-7.53-7-11c-1.81-1.16-3.6-1.72-5-2c-1.4,0.28-3.19,0.84-5,2c-5.44,3.47-6.73,9.53-7,11c0,1.54,0,3.08,0,4.62
		C30.57,160.62,32.08,159.77,35,160z"/>
	<g id="Layer_5">
		<path class="st3" d="M38.5,164.5c0,7,0,14,0,21c-2.33,0-4.67,0-7,0c0-7,0-14,0-21c0.87-1.41,2.44-2.19,4-2
			C37.41,162.73,38.38,164.3,38.5,164.5z"/>
		<path class="st3" d="M50.5,164.5c0,7,0,14,0,21c-2.33,0-4.67,0-7,0c0-7,0-14,0-21c0.87-1.41,2.44-2.19,4-2
			C49.41,162.73,50.38,164.3,50.5,164.5z"/>
	</g>
	<g id="Layer_7">
		<line class="st15" x1="29.5" y1="161.5" x2="29.5" y2="186.5"/>
		<line class="st15" x1="52.91" y1="161.81" x2="52.91" y2="186.81"/>
		<circle class="st15" cx="41" cy="155" r="4.5"/>
	</g>
	<g id="Layer_8">
		<rect x="27" y="185" class="st8" width="28" height="5"/>
		<rect x="7" y="243" class="st8" width="16" height="5"/>
		<rect x="7" y="260" class="st8" width="17" height="5"/>
		<rect x="7" y="251" class="st8" width="7" height="5"/>
		<rect x="7" y="273" class="st8" width="9" height="5"/>
		<rect x="7" y="291" class="st8" width="7" height="5"/>
		<rect x="7" y="313" class="st8" width="16" height="5"/>
		<rect x="-39.5" y="281.5" transform="matrix(-1.836970e-16 1 -1 -1.836970e-16 293.5 274.5)" class="st8" width="98" height="5"/>
	</g>
</g>
<g id="Layer_11">
	<path class="st5" d="M88.83,145.13c-2.11-1.23-4.2-1.83-5.83-2.13c-1.64,0.3-3.72,0.9-5.83,2.13c-6.35,3.71-7.85,10.17-8.17,11.74
		c0,9.96,0,19.92,0,29.88c3.56,0,8.73,0,12.83,0c0.82,0,1.62,0,2.33,0c4.1,0,9.27,0,12.83,0c0-9.96,0-19.92,0-29.88
		C96.68,155.31,95.18,148.84,88.83,145.13z"/>
	<path class="st14" d="M77,160c3.3,0.26,5.42,2.37,6,3c0.26-0.34,2.44-3.03,6-3c2.36,0.02,4.57,1.25,6,3.22c0-1.74,0-3.48,0-5.22
		c-0.27-1.47-1.56-7.53-7-11c-1.81-1.16-3.6-1.72-5-2c-1.4,0.28-3.19,0.84-5,2c-5.44,3.47-6.73,9.53-7,11c0,1.54,0,3.08,0,4.62
		C72.57,160.62,74.08,159.77,77,160z"/>
	<path class="st3" d="M80.5,164.5c0,7,0,14,0,21c-2.33,0-4.67,0-7,0c0-7,0-14,0-21c0.87-1.41,2.44-2.19,4-2
		C79.41,162.73,80.38,164.3,80.5,164.5z"/>
	<path class="st3" d="M92.5,164.5c0,7,0,14,0,21c-2.33,0-4.67,0-7,0c0-7,0-14,0-21c0.87-1.41,2.44-2.19,4-2
		C91.41,162.73,92.38,164.3,92.5,164.5z"/>
	<line class="st15" x1="71.5" y1="161.5" x2="71.5" y2="186.5"/>
	<line class="st15" x1="94.91" y1="161.81" x2="94.91" y2="186.81"/>
	<circle class="st15" cx="83" cy="155" r="4.5"/>
	<rect x="69" y="185" class="st8" width="28" height="5"/>
</g>
<g id="Layer_13">
	<g>
		<polygon points="22,104 22,103 16,103 16,104 12,104 12,106 17,106 17,105 21,105 21,106 26,106 26,104 		"/>
		<polygon points="83,104 83,103 77,103 77,104 73,104 73,106 78,106 78,105 82,105 82,106 87,106 87,104 		"/>
		<polygon points="106,104 106,103 100,103 100,104 96,104 96,106 101,106 101,105 105,105 105,106 110,106 110,104 		"/>
	</g>
	<g>
		<polygon class="st5" points="22,104 22,103 16,103 16,104 12,104 12,106 17,106 17,105 21,105 21,106 26,106 26,104 		"/>
		<polygon class="st5" points="83,104 83,103 77,103 77,104 73,104 73,106 78,106 78,105 82,105 82,106 87,106 87,104 		"/>
		<polygon class="st5" points="106,104 106,103 100,103 100,104 96,104 96,106 101,106 101,105 105,105 105,106 110,106 110,104 		
			"/>
	</g>
</g>
<g id="Layer_12">
	<path class="st14" d="M57.49,70.5c2.33,0,4.67,0,7,0c0-14.33,0-28.67,0-43c0.22-2.95-1.63-5-3-5s-3.22,2.05-3,5
		C58.16,41.83,57.82,56.17,57.49,70.5z"/>
	<path class="st14" d="M72.5,73.5c1.67,0,3.33,0,5,0c0.33-11,0.67-22,1-33c0.33-2.21-1.36-4-3-4s-3.33,1.79-3,4
		C72.5,51.5,72.5,62.5,72.5,73.5z"/>
	<path class="st14" d="M84.5,75.5c1.67,0,3.33,0,5,0c0-5,0-10,0-15c0.15-2.2-1-4-2-4c-2,0-2.87,1.4-3,4
		C84.5,65.5,84.5,70.5,84.5,75.5z"/>
	<path class="st14" d="M56.5,95.5c3,0,6,0,9,0c0-3.33,0-6.67,0-10c-0.32-2.15-2.01-3.79-4-4c-2.31-0.25-4.59,1.47-5,4
		C56.5,88.83,56.5,92.17,56.5,95.5z"/>
	<path class="st14" d="M71.5,99.5c2.67,0,4.33,0,7,0c0-4,0-8,0-12c0.06-2.47-2.06-4.26-4-4c-1.66,0.22-3.11,1.93-3,4
		C71.17,91.5,71.83,95.5,71.5,99.5z"/>
	<path class="st14" d="M84.5,101.5c2.33,0,4.67,0,7,0c0-4.67,0-9.33,0-14c0.67-2.49-1.05-4.79-3-5c-1.88-0.2-3.97,1.53-4,4
		C84.5,91.5,84.5,96.5,84.5,101.5z"/>
	<path class="st14" d="M95.5,102.5c2,0,4,0,6,0c0-8,0-16,0-24c0.27-1.37-0.63-2.73-2-3s-2.73,0.63-3,2
		C96.17,85.83,95.83,94.17,95.5,102.5z"/>
	<path class="st14" d="M106.5,103.5c2,0,4,0,6,0c0-3,0-6,0-9c-0.5-1.21-1.69-2-3-2s-2.5,0.79-3,2
		C106.5,97.5,106.5,100.5,106.5,103.5z"/>
	<path class="st14" d="M50.5,73.5c-1.67,0-3.33,0-5,0c-0.33-11-0.67-22-1-33c-0.33-2.21,1.36-4,3-4s3.33,1.79,3,4
		C50.5,51.5,50.5,62.5,50.5,73.5z"/>
	<path class="st14" d="M37.5,75.5c-1.67,0-3.33,0-5,0c0-5,0-10,0-15c-0.15-2.2,1-4,2-4c2,0,2.87,1.4,3,4
		C37.5,65.5,37.5,70.5,37.5,75.5z"/>
	<path class="st14" d="M50.45,100c-2.67,0-4.33,0-7,0c0-4,0-8,0-12c-0.06-2.47,2.06-4.26,4-4c1.66,0.22,3.11,1.93,3,4
		C50.79,92,50.12,96,50.45,100z"/>
	<path class="st14" d="M38.5,101.5c-2.33,0-4.67,0-7,0c0-4.67,0-9.33,0-14c-0.67-2.49,1.05-4.79,3-5c1.88-0.2,3.97,1.53,4,4
		C38.5,91.5,38.5,96.5,38.5,101.5z"/>
	<path class="st14" d="M26.5,101.5c-2,0-4,0-6,0c0-8,0-16,0-24c-0.27-1.37,0.63-2.73,2-3s2.73,0.63,3,2
		C25.83,84.83,26.17,93.17,26.5,101.5z"/>
	<path class="st14" d="M15.5,103.5c-2,0-4,0-6,0c0-3,0-6,0-9c0.5-1.21,1.69-2,3-2s2.5,0.79,3,2C15.5,97.5,15.5,100.5,15.5,103.5z"/>
	<path class="st14" d="M102.5,140.5h-82c-1.1,0-2-0.9-2-2l0,0c0-1.1,0.9-2,2-2h82c1.1,0,2,0.9,2,2l0,0
		C104.5,139.6,103.6,140.5,102.5,140.5z"/>
	<ellipse class="st14" cx="62.5" cy="195" rx="4" ry="4.5"/>
	<circle class="st14" cx="74.5" cy="197.5" r="5"/>
	<circle class="st14" cx="92.5" cy="197.5" r="5"/>
	<circle class="st14" cx="32.5" cy="197.5" r="5"/>
	<circle class="st14" cx="49.5" cy="197.5" r="5"/>
	<path class="st14" d="M287,263c2.8,0,5.61,0,8.41,0c0-11.84,0-23.67,0-35.51c0.25-5.2-1.68-9.47-3.37-9.47
		c-3.37,0-4.84,3.32-5.05,9.47C287,239.33,287,251.16,287,263z"/>
	<path class="st14" d="M315.13,322.14c2.8,0,5.61,0,8.41,0c0-11.84,0-23.67,0-35.51c0.25-5.2-1.68-9.47-3.37-9.47
		c-3.37,0-4.84,3.32-5.05,9.47C315.13,298.47,315.13,310.3,315.13,322.14z"/>
	<path class="st14" d="M260.13,322.14c2.8,0,5.61,0,8.41,0c0-11.84,0-23.67,0-35.51c0.25-5.2-1.68-9.47-3.37-9.47
		c-3.37,0-4.84,3.32-5.05,9.47C260.13,298.47,260.13,310.3,260.13,322.14z"/>
</g>
<g id="Layer_6">
	<path class="st14" d="M63.75,331.54c-1.36-0.89-2.7-1.32-3.75-1.54c-1.05,0.22-2.39,0.65-3.75,1.54c-4.08,2.67-5.05,7.32-5.25,8.45
		c0,7.17,0,14.34,0,21.51c2.29,0,5.61,0,8.25,0c0.53,0,1.04,0,1.5,0c2.64,0,5.96,0,8.25,0c0-7.17,0-14.34,0-21.51
		C68.8,338.86,67.83,334.21,63.75,331.54z"/>
	<path class="st14" d="M49.73,274.76c-0.72-0.44-1.42-0.65-1.98-0.76c-0.56,0.11-1.26,0.32-1.98,0.76c-2.15,1.31-2.66,3.6-2.77,4.16
		c0,3.53,0,7.06,0,10.59c1.21,0,2.96,0,4.35,0c0.28,0,0.55,0,0.79,0c1.39,0,3.15,0,4.35,0c0-3.53,0-7.06,0-10.59
		C52.39,278.36,51.88,276.07,49.73,274.76z"/>
</g>
<g id="Layer_10">
	<path class="st14" d="M65.21,204.71c-0.98-0.99-1.95-1.47-2.71-1.71c-0.76,0.24-1.73,0.72-2.71,1.71
		c-2.95,2.97-3.65,8.14-3.79,9.39c0,7.97,0,15.93,0,23.9c1.65,0,4.05,0,5.96,0c0.38,0,0.75,0,1.08,0c1.91,0,4.3,0,5.96,0
		c0-7.97,0-15.93,0-23.9C68.85,212.85,68.16,207.67,65.21,204.71z"/>
	<path class="st14" d="M62.5,213.24c3.25,0,5.73,4.11,6.5,5.79c0-1.48,0-2.97,0-4.45c-0.15-1.25-0.84-6.42-3.79-9.39
		c-0.98-0.99-1.95-1.47-2.71-1.71c-0.76,0.24-1.73,0.72-2.71,1.71c-2.95,2.97-3.65,8.14-3.79,9.39c0,1.31,0,2.63,0,3.94
		C56.85,216.82,58.71,213.24,62.5,213.24z"/>
	<rect x="55" y="236" class="st8" width="15" height="5"/>
</g>
<g id="Layer_14">
	<ellipse class="st5" cx="61.5" cy="116" rx="16.5" ry="16"/>
	<ellipse class="st0" cx="61.5" cy="115" rx="16.5" ry="16"/>
	<ellipse cx="61.45" cy="115.23" rx="14.55" ry="14.23"/>
</g>
<g id="Layer_15">
	<path class="st16" d="M63.62,111.91c-0.65,0.24-1.3,0.49-1.96,0.73c-0.14,0.36-0.29,0.72-0.43,1.08c-0.77,0.08-1.55,0.17-2.32,0.25
		c-2.56,2.7-5.11,5.39-7.67,8.09c3.16-1.9,6.32-3.8,9.49-5.7c0.29-0.72,0.58-1.44,0.87-2.17c0.39-0.04,0.77-0.08,1.16-0.13
		C63.05,113.36,63.34,112.63,63.62,111.91z"/>
	<path class="st17" d="M61.8,117c0.2-0.67,0.4-1.33,0.6-2c-0.2-0.33-0.4-0.67-0.6-1c0.4-0.67,0.8-1.33,1.2-2
		c-0.6-3.67-1.2-7.33-1.8-11c-0.4,3.67-0.8,7.33-1.2,11c0.4,0.67,0.8,1.33,1.2,2c-0.2,0.33-0.4,0.67-0.6,1
		C61,115.67,61.4,116.33,61.8,117z"/>
</g>
</svg>
