<?xml version="1.0" encoding="utf-8"?>
<!-- Generator: Adobe Illustrator 27.2.0, SVG Export Plug-In . SVG Version: 6.00 Build 0)  -->
<svg version="1.1" id="Layer_1" xmlns="http://www.w3.org/2000/svg" xmlns:xlink="http://www.w3.org/1999/xlink" x="0px" y="0px"
	 viewBox="0 0 227.5 109.8" style="enable-background:new 0 0 227.5 109.8;" xml:space="preserve">
<style type="text/css">
	.st0{fill:#333E52;}
	.st1{fill:#AB455B;}
	.st2{fill:#333E52;stroke:#FFFFFF;stroke-width:1;stroke-miterlimit:10.0003;}
	.st3{fill:#CF884B;stroke:#FFFFFF;stroke-miterlimit:10.0003;}
	.st4{fill:none;}
	.st5{font-family:'BerlinSansFBDemi-Bold';}
	.st6{font-size:22px;}
</style>
<g id="Layer_1_00000064346245859395153850000003850217293485950375_">
	<g id="Layer_1_00000057111518921258306510000016692763380519235263_">
		<g>
			<path class="st0" d="M93.1,73.1c-0.5-2.9-1.1-6.3-1.8-10.3c-0.6-3.6-1.2-7.2-1.8-10.8c-0.6-3.6-1.1-7-1.5-10.2s-0.7-5.4-0.9-6.5
				c0.4-0.4,0.9-0.7,1.3-1.1c-0.6-0.2-1.2-0.4-1.7-0.7l0,0c-5.1-1.9-8.2-3.2-9.3-3.8c-1-0.5-1.5-1.2-1.7-2c-1.7,1.7-3.4,3.4-4.9,5.3
				c0.4,1,1.3,1.8,2.5,2.5c-1.7,3.9-3.4,7.2-4.9,9.9c-1.4,2.5-2.9,4.9-4.5,7.3l-9.2,14c-6.1-1.1-11.4-1.6-15.9-1.6
				c-5.9,0-10.6,0.7-14.1,2C21.3,68.4,18,70,14.8,72c-1.7,1.1-3.2,2.2-4.5,3.4c-1.3,1.2-2.6,2.5-3.8,4c-2.4,2.9-3.7,5.7-3.7,8.4
				c0,2.5,1.7,4.9,5.1,7.1c3.4,2.3,7.4,3.4,12.2,3.4c11,0,23-8.1,35.9-24.2c2.7-0.1,5.1-0.2,7.2-0.2c1.9,0,3.6,0,5,0
				c1.4,0,3,0.1,4.9,0.1c1.8,0.1,4,0.1,6.5,0.2c0.5,8.1,0.7,14.8,0.7,20.1c0,0.5,0,1.1,0,1.9c2.2-1.4,4.6-2.6,7.3-3.7s5.7-2,8.9-2.8
				c-0.4-2-1-4.5-1.6-7.7C94.2,79,93.6,76,93.1,73.1z M46.8,77.6c-1.4,1.6-3.2,3.6-5.3,5.8c-2.1,2.3-4.3,4.6-6.6,6.8
				c-2.7,0.6-5,0.9-6.9,0.9c-3.4,0-5.9-0.7-7.7-2.2c-1.8-1.4-2.6-3.4-2.6-6c0-2.4,1-4.9,3-7.5c9.4-0.8,19.1-1.2,29-1.5
				C49.1,74.8,48.2,76,46.8,77.6z M61,67.6c1.5-2.1,3.1-4.2,4.6-6.5c1.6-2.3,3-4.4,4.2-6.3c1.2-1.9,2.9-4.5,4.8-7.6
				c0.4,1.2,0.8,2.6,1.3,4.4c0.4,1.7,0.9,3.6,1.2,5.6s0.7,4.2,1.1,6.5c0.3,2.3,0.6,4.8,0.9,7.3L61,67.6z"/>
			<path class="st0" d="M100.6,39.9l11.9-3.7l-0.3,13.4v8.6l5.7-5.9h0.4c4.8,1.5,7.9,3,9.5,4.7c1.5,1.7,2.3,4.5,2.3,8.6
				c0,1.4-0.2,3.9-0.7,7.4c-0.3,1.9-0.5,4.5-0.6,8c-3.4,2.8-7.2,5.5-11.5,8.1c1-8.3,1.6-13.7,1.8-16.1l-1.3-8.3
				c-0.1-0.5-0.8-2.6-2-6.2c-1.6,2.1-2.8,3.6-3.5,4.3v8.9c0,0.1,0,0.9-0.1,2.5c-0.1,1.4-0.1,2.6-0.1,3.5c0,0.7,0.1,2.1,0.2,4.2
				c-2.5,0.1-6.7,0.6-12.6,1.4c0.3-2.9,0.6-6.6,0.7-11.3C100.4,67.3,100.5,56.6,100.6,39.9z"/>
			<path class="st0" d="M136.7,54.3c2.8-0.2,7-1.1,12.7-2.8c-0.3,0.8-0.6,2.4-1,4.8c-0.2,1.5-0.5,3.1-0.8,4.9
				c-0.4,1.9-0.5,3.6-0.5,5.1c0,1.6,0.3,3,0.9,4.4c0.6,1.6,1.4,3.3,2.5,5.3c2.2-1.7,3.7-3.2,4.7-4.5c0-0.7,0-2,0-3.9
				c0-6.5-0.3-11.3-0.9-14.3c0.9,0.2,1.8,0.2,2.5,0.2c2.9,0,6.3-0.3,10.2-0.9c-0.2,3.6-0.3,8-0.3,13.2c0,3,0.1,8.1,0.3,15.3
				c-1.3,0.2-3.9,0.7-7.8,1.5l-4.9,0.9c0.4-2.2,0.6-4.3,0.6-6.1c-1.8,0.9-4.8,2.8-9,5.6c-3.3-0.8-5.4-1.5-6.2-2
				c-0.9-0.5-1.8-1.5-2.6-3.1s-1.3-3.9-1.3-6.8C135.7,65.3,136,59.7,136.7,54.3z"/>
			<path class="st0" d="M183.2,52c0.1,0,2.2,0.1,6.1,0.4c4.2,0.3,8.2,0.4,12.2,0.4c0,0.1-0.3,1-0.8,2.6c-0.8,2.7-1.2,4.7-1.3,6
				c-2.7-1.1-8.1-2-16-2.6c1.1,3.3,4.8,5,11,5c3.3,0,5.5,0.1,6.8,0.4c1.2,0.3,2.1,0.9,2.8,1.8s1,2.1,1,3.8c0,1.8-0.4,3.5-1.1,5.2
				c-0.8,1.7-1.7,3.1-2.8,4.1c-1.1,1.1-3,2-5.7,2.8s-5.5,1.3-8.5,1.3c-5.2,0-9.5-1.1-12.9-3.2c0.4-1.4,1.1-3.1,1.9-5.2
				c3.7,1.6,7.8,2.4,12.4,2.4c2.4,0,4.7-0.7,6.8-2c-1.4-1-3-1.5-4.7-1.5c-0.4,0-0.8,0-1.3,0c-1.2,0.1-1.8,0.1-2,0.1
				c-4.6,0-8.1-0.7-10.6-2.1c-2.4-1.4-3.6-3.7-3.6-7.1c0-2.7,0.7-4.9,2.2-6.7C176.5,56.1,179.2,54.2,183.2,52z"/>
		</g>
	</g>
	<g id="Layer_2_00000035530148172746659860000005315174426183980713_">
		<g>
			<path class="st1" d="M95.5,12.3c1.3,3.7,2.6,7.9,1.4,12c-1,3.9-5.7,6.6-9.8,6.1c-12-1.1-18.1-17.1-9.9-25.9
				c2.7-3.1,7.9-4.3,11.3-2C92.2,4.8,94.1,8.7,95.5,12.3L95.5,12.3z M94.8,12.6c-1.6-3.9-5.7-8.7-10.3-7.2c-8,3.9-1.2,21.8,7.4,19.3
				C96.4,22.9,96.3,16.6,94.8,12.6L94.8,12.6z"/>
		</g>
	</g>
</g>
<g id="Layer_2_00000128473486020909720040000003514065797240676757_">
	
		<rect x="155.6" y="80.2" transform="matrix(0.9818 -0.1901 0.1901 0.9818 -14.0123 36.2582)" class="st2" width="52.7" height="21.9"/>
	
		<rect x="161.8" y="84.3" transform="matrix(0.9818 -0.1901 0.1901 0.9818 -14.3701 37.3029)" class="st3" width="51" height="18.5"/>
	<polygon class="st4" points="163.7,89.6 224.5,78.8 227.5,95.8 166.7,106.6 	"/>
	<text transform="matrix(0.9816 -0.1908 0.1908 0.9816 165.0729 105.1717)" class="st0 st5 st6">VISIT</text>
</g>
</svg>
